<?xml version="1.0" encoding="utf-8"?>
<!-- Generator: Adobe Illustrator 25.0.1, SVG Export Plug-In . SVG Version: 6.00 Build 0)  -->
<svg version="1.1" id="Layer_1" xmlns="http://www.w3.org/2000/svg" xmlns:xlink="http://www.w3.org/1999/xlink" x="0px" y="0px"
	 viewBox="0 0 1000 1000" style="enable-background:new 0 0 1000 1000;" xml:space="preserve">
<style type="text/css">
	.st0{fill:#FFFFFF;}
</style>
<g>
	<g transform="translate(0.000000,511.000000) scale(0.100000,-0.100000)">
		<path class="st0" d="M4837,4991.9c-180.3-68.1-288.4-170.2-576.8-548.8c-104.2-134.2-214.3-268.4-246.4-296.4
			c-98.1-82.1-180.3-68.1-566.8,88.1c-408.6,164.2-478.7,184.3-640.9,184.3c-168.2,0-274.4-46.1-380.6-164.2
			c-110.2-122.2-160.2-266.4-202.3-566.8c-80.1-584.9-90.1-626.9-176.3-683c-52.1-34.1-226.3-68.1-614.9-120.2
			c-308.5-40.1-456.7-92.1-578.9-202.3c-134.2-120.2-170.3-218.3-158.2-432.7c8-150.2,24-204.3,162.2-548.8
			c170.2-424.6,184.3-496.7,106.2-598.9c-28-36-176.3-160.2-330.5-278.4C330.3,591.5,246.2,509.4,158.1,359.1
			C108,275,100,240.9,100,110.8c2-252.4,94.1-376.5,530.8-711C785-718.5,933.2-840.6,961.3-874.7c82.1-98.1,68.1-176.3-104.2-604.9
			c-138.2-344.5-154.2-398.6-162.2-548.8c-12-214.3,24-312.5,158.2-432.6c134.2-120.2,270.4-162.3,717.1-222.3
			c414.6-56.1,494.7-84.1,548.8-192.3c20-44.1,56.1-222.3,84.1-440.7c60.1-446.7,102.2-582.9,222.3-717.1
			c106.2-118.2,212.3-164.2,382.6-164.2c154.2,0,272.4,32,560.8,154.2c442.6,188.3,538.8,206.3,642.9,118.2
			c34.1-28.1,156.2-176.3,274.4-330.5c118.2-156.2,262.4-322.5,318.5-372.5c254.4-222.3,536.8-218.3,799.2,12
			c50.1,44.1,186.3,206.3,304.4,360.5c118.2,154.2,240.4,302.4,274.4,330.5c106.2,90.1,168.2,78.1,727.1-150.2
			c224.3-92.1,284.4-108.2,426.6-116.2c124.2-6,186.3,0,254.4,24c126.2,48.1,256.4,200.3,308.5,358.5
			c40.1,124.2,54.1,194.3,114.2,634.9c36.1,274.4,72.1,358.5,170.3,406.6c44.1,20,222.3,56.1,440.7,84.1
			c446.7,60.1,582.9,102.2,717.1,222.3c122.2,110.2,166.2,214.3,164.2,390.6c-2,154.2-46.1,300.4-210.3,699
			c-130.2,312.5-140.2,402.6-62.1,496.7c28.1,34.1,176.3,156.2,330.5,274.4s316.5,254.4,360.5,304.5
			c230.3,262.4,234.3,544.8,12,799.2c-50.1,56.1-216.3,200.3-372.5,318.5c-154.2,118.2-302.4,240.4-330.5,274.4
			c-90.1,106.2-78.1,168.3,150.2,727.1c92.1,224.3,108.2,284.4,116.2,426.6c6,124.2,0,186.3-24,254.4
			c-48.1,126.2-200.3,256.4-358.5,308.5c-124.2,40.1-194.3,54.1-634.9,114.2c-274.4,36-358.5,72.1-406.6,170.2
			c-20,44.1-56.1,222.3-84.1,440.7c-60.1,446.7-102.1,582.9-222.3,717.1c-108.2,120.2-212.3,164.2-388.6,164.2
			c-152.2,0-298.4-44.1-701-210.3c-312.5-130.2-402.6-140.2-496.7-62.1c-34.1,28-156.2,176.3-274.4,330.5
			c-224.3,294.4-346.5,416.6-480.7,484.7C5129.4,5014,4933.1,5028,4837,4991.9z M2942.2,1164.3c120.2-50.1,166.3-176.3,108.2-302.5
			c-44.1-96.1-102.1-110.2-476.7-110.2h-340.5V541.4V331.1h230.3c266.4,0,326.5-20,378.6-128.2c40.1-84.1,40.1-100.1,0-184.3
			c-52.1-108.2-112.2-128.2-378.6-128.2h-230.3v-324.5c0-376.6-18-440.6-144.2-502.7c-64.1-32-86.1-34.1-146.2-14
			c-38.1,12-88.1,46.1-110.2,74.1c-38.1,50.1-40.1,80.1-40.1,985.4c0,1031.5-4,997.5,128.2,1055.6
			C2010.8,1202.4,2848.1,1204.4,2942.2,1164.3z M4422.4,1116.2c232.3-114.2,360.5-318.5,362.5-576.8c0-126.2-8-160.2-72.1-288.4
			l-72.1-146.2l44.1-72.1c80.1-128.2,96.1-206.3,106.2-502.8c10-338.5-10-404.6-138.2-466.7c-64.1-32-86.1-34.1-146.2-14
			c-132.2,44.1-150.2,90.1-150.2,394.6c0,382.6-40.1,446.7-284.4,446.7h-136.2V-450c0-384.6-12-432.6-128.2-488.7
			c-38.1-18-78.1-32.1-92.1-32.1c-56.1,0-164.2,70.1-190.3,122.2c-46.1,86.1-44.1,1834.7,2,1922.8
			c52.1,104.1,120.2,120.2,460.7,112.2C4282.2,1180.3,4294.2,1178.3,4422.4,1116.2z M6373.3,1158.3
			c142.2-66.1,164.2-254.4,44.1-354.5c-60.1-52.1-64.1-52.1-420.6-52.1h-358.5V543.4V335.1l262.4-8l262.4-6L6221,255
			c44.1-48.1,58.1-84.1,58.1-144.2s-14-96.1-58.1-144.2l-58.1-66.1l-262.4-6l-262.4-8v-208.3v-208.3h362.5h362.5l68.1-68.1
			c110.2-110.2,82.1-272.4-62.1-340.5c-60.1-30-132.2-34.1-538.8-28c-440.7,6-472.7,8-526.8,48.1
			c-108.2,80.1-106.2,66.1-102.1,1053.5l6,915.4l58.1,60.1c32,32,76.1,64.1,100.1,68.1c22,4,244.3,10,488.7,12
			C6235,1192.3,6313.2,1186.3,6373.3,1158.3z M8069.8,1164.3C8190,1114.2,8236,988,8177.9,861.8c-44.1-96.1-102.1-110.2-476.7-110.2
			h-340.5V541.4V331.1H7591c164.2,0,248.4-8,288.4-30c52.1-26,122.2-134.2,122.2-190.3s-70.1-164.2-122.2-190.3
			c-40.1-22-124.2-30-288.4-30h-230.3v-210.3v-210.3h340.5c374.6,0,432.6-14,476.7-110.2c58.1-126.2,12-252.4-108.1-302.4
			c-96.2-40.1-921.4-40.1-1017.5,0c-136.2,56.1-132.2,20-132.2,1053.5c0,1029.5-4,995.5,128.2,1053.6
			C7138.4,1202.4,7975.6,1204.4,8069.8,1164.3z"/>
		<path class="st0" d="M3935.7,541.4V331.1h138.2c120.2,0,148.2,8,198.3,50.1c78.1,64.1,96.1,144.2,56.1,238.4
			c-38.1,90.1-126.2,132.2-282.4,132.2h-110.2V541.4z"/>
	</g>
</g>
</svg>
